<?xml version="1.0" encoding="UTF-8"?>
<svg xmlns="http://www.w3.org/2000/svg">
    <!-- Notes: make sure 24x24, remove title, rename to symbol, add id, format -->
    <symbol id="search" width="24" height="24" viewBox="0 0 24 24" fill="none"
        xmlns="http://www.w3.org/2000/svg">
        <path fill-rule="evenodd" clip-rule="evenodd"
            d="M10.1408 17.2906C11.726 17.2906 13.1906 16.7737 14.3754 15.8992L19.0696 20.6638C19.5067 21.1076 20.2206 21.1127 20.6641 20.6752C21.1075 20.2378 21.1126 19.5235 20.6754 19.0797L15.9575 14.291C16.7911 13.1219 17.2816 11.6909 17.2816 10.1453C17.2816 6.19906 14.0845 3 10.1408 3C6.19704 3 3 6.19906 3 10.1453C3 14.0916 6.19704 17.2906 10.1408 17.2906ZM10.1408 15.0342C12.8391 15.0342 15.0266 12.8454 15.0266 10.1453C15.0266 7.44525 12.8391 5.25641 10.1408 5.25641C7.44243 5.25641 5.25499 7.44525 5.25499 10.1453C5.25499 12.8454 7.44243 15.0342 10.1408 15.0342Z"
            fill="black" />
    </symbol>

    <symbol id="hamburger" xmlns="http://www.w3.org/2000/svg" viewBox="0 0 24 24">
        <path d="M3,6H21V8H3V6M3,11H21V13H3V11M3,16H21V18H3V16Z" />
    </symbol>

    <symbol id="notification" width="24" height="24" viewBox="0 0 24 24" fill="none"
        xmlns="http://www.w3.org/2000/svg">
        <path
            d="M21 19V20H3V19L5 17V11C5 7.9 7.03 5.17 10 4.29C10 4.19 10 4.1 10 4C10 3.46957 10.2107 2.96086 10.5858 2.58579C10.9609 2.21071 11.4696 2 12 2C12.5304 2 13.0391 2.21071 13.4142 2.58579C13.7893 2.96086 14 3.46957 14 4C14 4.1 14 4.19 14 4.29C16.97 5.17 19 7.9 19 11V17L21 19ZM14 21C14 21.5304 13.7893 22.0391 13.4142 22.4142C13.0391 22.7893 12.5304 23 12 23C11.4696 23 10.9609 22.7893 10.5858 22.4142C10.2107 22.0391 10 21.5304 10 21"
            fill="black" />
    </symbol>

    <symbol id="play" xmlns="http://www.w3.org/2000/svg" viewBox="0 0 24 24">
        <path d="M8,5.14V19.14L19,12.14L8,5.14Z" />
    </symbol>

    <symbol id="dots-vert" width="24" height="24" viewBox="0 0 24 24" fill="none"
        xmlns="http://www.w3.org/2000/svg">
        <path
            d="M12 16C12.5304 16 13.0391 16.2107 13.4142 16.5858C13.7893 16.9609 14 17.4696 14 18C14 18.5304 13.7893 19.0391 13.4142 19.4142C13.0391 19.7893 12.5304 20 12 20C11.4696 20 10.9609 19.7893 10.5858 19.4142C10.2107 19.0391 10 18.5304 10 18C10 17.4696 10.2107 16.9609 10.5858 16.5858C10.9609 16.2107 11.4696 16 12 16ZM12 10C12.5304 10 13.0391 10.2107 13.4142 10.5858C13.7893 10.9609 14 11.4696 14 12C14 12.5304 13.7893 13.0391 13.4142 13.4142C13.0391 13.7893 12.5304 14 12 14C11.4696 14 10.9609 13.7893 10.5858 13.4142C10.2107 13.0391 10 12.5304 10 12C10 11.4696 10.2107 10.9609 10.5858 10.5858C10.9609 10.2107 11.4696 10 12 10ZM12 4C12.5304 4 13.0391 4.21071 13.4142 4.58579C13.7893 4.96086 14 5.46957 14 6C14 6.53043 13.7893 7.03914 13.4142 7.41421C13.0391 7.78929 12.5304 8 12 8C11.4696 8 10.9609 7.78929 10.5858 7.41421C10.2107 7.03914 10 6.53043 10 6C10 5.46957 10.2107 4.96086 10.5858 4.58579C10.9609 4.21071 11.4696 4 12 4Z"
            fill="black" />
    </symbol>

    <!--<symbol id="bookmark" xmlns="http://www.w3.org/2000/svg" viewBox="0 0 24 24">
      <path d="M17,18L12,15.82L7,18V5H17M17,3H7A2,2 0 0,0 5,5V21L12,18L19,21V5C19,3.89 18.1,3 17,3Z" />
    </symbol>-->

</svg>
